<svg width="15" height="16" viewBox="0 0 15 16" fill="none" xmlns="http://www.w3.org/2000/svg">
<path id="Vector" opacity="0.8" d="M8.25 5.34241H6.75V3.84241H8.25M8.25 11.3424H6.75V6.84241H8.25M7.5 0.0924072C6.51509 0.0924072 5.53982 0.2864 4.62987 0.663311C3.71993 1.04022 2.89314 1.59267 2.1967 2.28911C0.790176 3.69563 0 5.60328 0 7.59241C0 9.58153 0.790176 11.4892 2.1967 12.8957C2.89314 13.5921 3.71993 14.1446 4.62987 14.5215C5.53982 14.8984 6.51509 15.0924 7.5 15.0924C9.48912 15.0924 11.3968 14.3022 12.8033 12.8957C14.2098 11.4892 15 9.58153 15 7.59241C15 6.60749 14.806 5.63222 14.4291 4.72228C14.0522 3.81234 13.4997 2.98555 12.8033 2.28911C12.1069 1.59267 11.2801 1.04022 10.3701 0.663311C9.46018 0.2864 8.48491 0.0924072 7.5 0.0924072Z" fill="white" fill-opacity="0.8"/>
</svg>
