<svg width="23" height="24" viewBox="0 0 23 24" fill="none" xmlns="http://www.w3.org/2000/svg">
<path id="Vector" opacity="0.8" d="M12.5307 8.59368H10.2524V6.31538H12.5307M12.5307 17.7069H10.2524V10.872H12.5307M11.3915 0.619629C9.89555 0.619629 8.41424 0.914279 7.03216 1.48676C5.65008 2.05923 4.39429 2.89832 3.33649 3.95612C1.20017 6.09244 0 8.98992 0 12.0111C0 15.0323 1.20017 17.9298 3.33649 20.0661C4.39429 21.1239 5.65008 21.963 7.03216 22.5355C8.41424 23.108 9.89555 23.4026 11.3915 23.4026C14.4127 23.4026 17.3102 22.2025 19.4465 20.0661C21.5828 17.9298 22.783 15.0323 22.783 12.0111C22.783 10.5152 22.4884 9.03387 21.9159 7.65179C21.3434 6.26971 20.5043 5.01392 19.4465 3.95612C18.3887 2.89832 17.1329 2.05923 15.7508 1.48676C14.3688 0.914279 12.8875 0.619629 11.3915 0.619629Z" fill="white" fill-opacity="0.8"/>
</svg>
