<svg width="50" height="51" viewBox="0 0 50 51" fill="none" xmlns="http://www.w3.org/2000/svg">
<circle cx="25.0969" cy="25.1636" r="23.4086" fill="white" stroke="#E7140F" stroke-width="2.88995"/>
<path d="M15.1433 29.3624H10.4849L9.73811 31.5671H6.55548L11.0716 19.0855H14.5921L19.1082 31.5671H15.89L15.1433 29.3624ZM14.3609 27.0154L12.8141 22.446L11.285 27.0154H14.3609ZM25.1766 19.0855C26.4924 19.0855 27.6421 19.3463 28.626 19.8678C29.6098 20.3894 30.3684 21.1243 30.9018 22.0726C31.4471 23.009 31.7197 24.0936 31.7197 25.3263C31.7197 26.5472 31.4471 27.6318 30.9018 28.5801C30.3684 29.5284 29.6039 30.2633 28.6082 30.7848C27.6244 31.3064 26.4805 31.5671 25.1766 31.5671H20.5005V19.0855H25.1766ZM24.9811 28.9357C26.1308 28.9357 27.0258 28.6216 27.6659 27.9933C28.3059 27.3651 28.626 26.4761 28.626 25.3263C28.626 24.1765 28.3059 23.2816 27.6659 22.6415C27.0258 22.0015 26.1308 21.6814 24.9811 21.6814H23.5409V28.9357H24.9811ZM37.9527 31.6916C37.04 31.6916 36.2221 31.5434 35.4991 31.2471C34.776 30.9508 34.1952 30.5122 33.7566 29.9314C33.3299 29.3506 33.1047 28.6512 33.081 27.8333H36.317C36.3644 28.2956 36.5244 28.6512 36.797 28.9001C37.0697 29.1372 37.4253 29.2557 37.8638 29.2557C38.3143 29.2557 38.6699 29.155 38.9306 28.9535C39.1914 28.7401 39.3218 28.4497 39.3218 28.0822C39.3218 27.7741 39.2151 27.5192 39.0018 27.3177C38.8003 27.1162 38.5454 26.9502 38.2372 26.8199C37.9409 26.6895 37.5142 26.5413 36.9571 26.3754C36.151 26.1264 35.4932 25.8775 34.9835 25.6286C34.4738 25.3797 34.0352 25.0122 33.6677 24.5262C33.3003 24.0402 33.1166 23.4061 33.1166 22.6238C33.1166 21.4621 33.5374 20.5553 34.3789 19.9034C35.2205 19.2396 36.317 18.9077 37.6683 18.9077C39.0433 18.9077 40.1515 19.2396 40.9931 19.9034C41.8347 20.5553 42.2852 21.4681 42.3444 22.6415H39.0551C39.0314 22.2385 38.8832 21.9244 38.6106 21.6992C38.338 21.4621 37.9883 21.3436 37.5616 21.3436C37.1941 21.3436 36.8978 21.4443 36.6726 21.6459C36.4474 21.8355 36.3348 22.1141 36.3348 22.4815C36.3348 22.8845 36.5244 23.1986 36.9037 23.4239C37.283 23.6491 37.8757 23.8921 38.6817 24.1528C39.4878 24.4255 40.1397 24.6862 40.6375 24.9352C41.1472 25.1841 41.5858 25.5456 41.9533 26.0198C42.3207 26.4939 42.5044 27.1043 42.5044 27.8511C42.5044 28.5623 42.3207 29.2083 41.9533 29.7891C41.5977 30.3699 41.0761 30.8322 40.3886 31.176C39.7011 31.5197 38.8892 31.6916 37.9527 31.6916Z" fill="black"/>
<path d="M40.9917 8.69089L9.20223 40.4804" stroke="#E7140F" stroke-width="2.88995"/>
</svg>
