<svg width="30" height="30" viewBox="0 0 30 30" fill="none" xmlns="http://www.w3.org/2000/svg">
<g id="calender 1">
<path id="Vector" d="M23.398 5.38306H20.9602V4.16416C20.9602 3.84088 20.8318 3.53085 20.6032 3.30226C20.3746 3.07367 20.0646 2.94525 19.7413 2.94525C19.418 2.94525 19.108 3.07367 18.8794 3.30226C18.6508 3.53085 18.5224 3.84088 18.5224 4.16416V5.38306H11.209V4.16416C11.209 3.84088 11.0806 3.53085 10.852 3.30226C10.6234 3.07367 10.3133 2.94525 9.99007 2.94525C9.66679 2.94525 9.35676 3.07367 9.12817 3.30226C8.89958 3.53085 8.77116 3.84088 8.77116 4.16416V5.38306H6.33335C5.36353 5.38306 4.43343 5.76832 3.74766 6.45409C3.0619 7.13986 2.67664 8.06996 2.67664 9.03978V23.6666C2.67664 24.6365 3.0619 25.5666 3.74766 26.2523C4.43343 26.9381 5.36353 27.3234 6.33335 27.3234H23.398C24.3678 27.3234 25.298 26.9381 25.9837 26.2523C26.6695 25.5666 27.0547 24.6365 27.0547 23.6666V9.03978C27.0547 8.06996 26.6695 7.13986 25.9837 6.45409C25.298 5.76832 24.3678 5.38306 23.398 5.38306ZM24.6169 23.6666C24.6169 23.9899 24.4885 24.3 24.2599 24.5285C24.0313 24.7571 23.7213 24.8855 23.398 24.8855H6.33335C6.01008 24.8855 5.70005 24.7571 5.47146 24.5285C5.24287 24.3 5.11445 23.9899 5.11445 23.6666V15.1343H24.6169V23.6666ZM24.6169 12.6965H5.11445V9.03978C5.11445 8.71651 5.24287 8.40647 5.47146 8.17788C5.70005 7.94929 6.01008 7.82087 6.33335 7.82087H8.77116V9.03978C8.77116 9.36305 8.89958 9.67309 9.12817 9.90167C9.35676 10.1303 9.66679 10.2587 9.99007 10.2587C10.3133 10.2587 10.6234 10.1303 10.852 9.90167C11.0806 9.67309 11.209 9.36305 11.209 9.03978V7.82087H18.5224V9.03978C18.5224 9.36305 18.6508 9.67309 18.8794 9.90167C19.108 10.1303 19.418 10.2587 19.7413 10.2587C20.0646 10.2587 20.3746 10.1303 20.6032 9.90167C20.8318 9.67309 20.9602 9.36305 20.9602 9.03978V7.82087H23.398C23.7213 7.82087 24.0313 7.94929 24.2599 8.17788C24.4885 8.40647 24.6169 8.71651 24.6169 9.03978V12.6965Z" fill="#173878"/>
</g>
</svg>
