<svg width="34" height="34" viewBox="0 0 34 34" fill="none" xmlns="http://www.w3.org/2000/svg">
<g id="call-20-regular 1">
<path id="Vector" d="M11.7975 3.78863L10.5915 4.15197C9.51757 4.47582 8.55854 5.0997 7.82726 5.95019C7.09597 6.80067 6.62286 7.84236 6.4636 8.95265C5.96402 12.4312 7.08093 16.4985 9.77396 21.1629C12.4603 25.8156 15.4174 28.8131 18.6722 30.1251C19.718 30.5466 20.8628 30.6589 21.9706 30.4487C23.0784 30.2385 24.1025 29.7146 24.9212 28.9392L25.8329 28.0746C26.4249 27.5144 26.7933 26.7582 26.8697 25.9467C26.9462 25.1351 26.7253 24.3235 26.2483 23.6625L23.9674 20.5002C23.6591 20.0733 23.2248 19.7535 22.7256 19.5858C22.2264 19.4181 21.6872 19.4108 21.1836 19.565L17.7336 20.6196L17.6445 20.6364C17.2643 20.692 16.3862 19.8694 15.2929 17.9754C14.1491 15.9939 13.9136 14.8349 14.2281 14.5355L15.9825 12.8988C16.6241 12.3008 17.0624 11.5169 17.2358 10.6571C17.4093 9.79739 17.3093 8.90489 16.9497 8.10488L15.8362 5.63052C15.5014 4.88593 14.9072 4.28852 14.1644 3.94963C13.4217 3.61075 12.5793 3.55353 11.7975 3.78863ZM14.3038 6.32018L15.414 8.79453C15.6302 9.27432 15.6907 9.80979 15.5869 10.3257C15.4831 10.8416 15.2203 11.3121 14.8354 11.6709L13.0759 13.3093C11.9506 14.3757 12.324 16.1957 13.8379 18.8164C15.2609 21.2824 16.5595 22.5002 17.9556 22.2883L18.1642 22.2445L21.6764 21.173C21.8443 21.1215 22.0241 21.1237 22.1906 21.1796C22.3572 21.2354 22.502 21.3419 22.6049 21.4842L24.8858 24.6465C25.1247 24.977 25.2354 25.383 25.1973 25.7889C25.1593 26.1948 24.975 26.5732 24.679 26.8535L23.7656 27.718C23.1808 28.2715 22.4494 28.6454 21.6583 28.7954C20.8673 28.9454 20.0498 28.8651 19.303 28.5641C16.4468 27.4136 13.7471 24.6768 11.2323 20.3219C8.71088 15.9569 7.68985 12.2445 8.12887 9.19151C8.24252 8.39828 8.58043 7.65404 9.10283 7.04641C9.62524 6.43878 10.3104 5.99306 11.0776 5.76173L12.2836 5.39839C12.6746 5.2809 13.0951 5.30963 13.4664 5.47923C13.8378 5.64884 14.1349 5.94773 14.3021 6.32018H14.3038Z" fill="#193C7D"/>
</g>
</svg>
