<svg width="15" height="16" viewBox="0 0 15 16" fill="none" xmlns="http://www.w3.org/2000/svg">
<path id="Vector" opacity="0.8" fill-rule="evenodd" clip-rule="evenodd" d="M4.16667 3.42574C4.16667 2.54169 4.51786 1.69384 5.14298 1.06872C5.7681 0.443597 6.61594 0.0924072 7.5 0.0924072C8.38406 0.0924072 9.2319 0.443597 9.85702 1.06872C10.4821 1.69384 10.8333 2.54169 10.8333 3.42574C10.8333 4.3098 10.4821 5.15764 9.85702 5.78276C9.2319 6.40788 8.38406 6.75907 7.5 6.75907C6.61594 6.75907 5.7681 6.40788 5.14298 5.78276C4.51786 5.15764 4.16667 4.3098 4.16667 3.42574ZM4.16667 8.42574C3.0616 8.42574 2.00179 8.86473 1.22039 9.64613C0.438987 10.4275 0 11.4873 0 12.5924C0 13.2554 0.263392 13.8913 0.732233 14.3602C1.20107 14.829 1.83696 15.0924 2.5 15.0924H12.5C13.163 15.0924 13.7989 14.829 14.2678 14.3602C14.7366 13.8913 15 13.2554 15 12.5924C15 11.4873 14.561 10.4275 13.7796 9.64613C12.9982 8.86473 11.9384 8.42574 10.8333 8.42574H4.16667Z" fill="white" fill-opacity="0.8"/>
</svg>
