<svg width="44" height="44" viewBox="0 0 44 44" fill="none" xmlns="http://www.w3.org/2000/svg">
<g id="cross 1">
<path id="Vector" d="M31.5657 32.6678C31.0706 33.1629 30.3991 33.441 29.699 33.441C28.9989 33.441 28.3274 33.1629 27.8323 32.6678L22.0001 26.0018L16.1679 32.6656C15.9235 32.914 15.6323 33.1116 15.3112 33.2469C14.99 33.3823 14.6452 33.4527 14.2967 33.4541C13.9483 33.4555 13.6029 33.3879 13.2807 33.2552C12.9584 33.1225 12.6657 32.9273 12.4192 32.6809C12.1728 32.4344 11.9776 32.1417 11.8449 31.8194C11.7122 31.4972 11.6446 31.1518 11.646 30.8034C11.6474 30.4549 11.7178 30.1101 11.8532 29.7889C11.9885 29.4678 12.1861 29.1766 12.4345 28.9322L18.5021 22.0022L12.4323 15.0678C12.1839 14.8234 11.9863 14.5322 11.851 14.2111C11.7156 13.8899 11.6452 13.5451 11.6438 13.1966C11.6424 12.8482 11.71 12.5028 11.8427 12.1806C11.9754 11.8583 12.1706 11.5656 12.417 11.3191C12.6635 11.0727 12.9562 10.8775 13.2785 10.7448C13.6007 10.6121 13.9461 10.5445 14.2945 10.5459C14.643 10.5473 14.9878 10.6177 15.309 10.7531C15.6301 10.8884 15.9213 11.086 16.1657 11.3344L22.0001 18.0026L27.8323 11.3344C28.0767 11.086 28.3679 10.8884 28.689 10.7531C29.0102 10.6177 29.355 10.5473 29.7035 10.5459C30.052 10.5445 30.3973 10.6121 30.7195 10.7448C31.0418 10.8775 31.3345 11.0727 31.581 11.3191C31.8274 11.5656 32.0226 11.8583 32.1553 12.1806C32.288 12.5028 32.3556 12.8482 32.3542 13.1966C32.3528 13.5451 32.2824 13.8899 32.147 14.2111C32.0117 14.5322 31.8141 14.8234 31.5657 15.0678L25.4981 22.0022L31.5657 28.9322C31.8112 29.1774 32.0059 29.4685 32.1387 29.789C32.2716 30.1095 32.34 30.4531 32.34 30.8C32.34 31.1469 32.2716 31.4905 32.1387 31.811C32.0059 32.1315 31.8112 32.4226 31.5657 32.6678Z" fill="black"/>
</g>
</svg>
