<svg width="15" height="16" viewBox="0 0 15 16" fill="none" xmlns="http://www.w3.org/2000/svg">
<path id="Vector" opacity="0.8" d="M7.4625 12.1848C7.725 12.1848 7.947 12.0941 8.1285 11.9126C8.31 11.7311 8.4005 11.5093 8.4 11.2473C8.4 10.9848 8.3095 10.7628 8.1285 10.5813C7.9475 10.3998 7.7255 10.3093 7.4625 10.3098C7.2 10.3098 6.97825 10.4006 6.79725 10.5821C6.61625 10.7636 6.5255 10.9853 6.525 11.2473C6.525 11.5098 6.61575 11.7318 6.79725 11.9133C6.97875 12.0948 7.2005 12.1853 7.4625 12.1848ZM6.7875 9.29731H8.175C8.175 8.88481 8.222 8.55981 8.316 8.32231C8.41 8.08481 8.6755 7.75981 9.1125 7.34731C9.4375 7.02231 9.69375 6.71281 9.88125 6.41881C10.0687 6.12481 10.1625 5.77181 10.1625 5.35981C10.1625 4.65981 9.90625 4.12231 9.39375 3.74731C8.88125 3.37231 8.275 3.18481 7.575 3.18481C6.8625 3.18481 6.28425 3.37231 5.84025 3.74731C5.39625 4.12231 5.087 4.57231 4.9125 5.09731L6.15 5.58481C6.2125 5.35981 6.35325 5.11606 6.57225 4.85356C6.79125 4.59106 7.1255 4.45981 7.575 4.45981C7.975 4.45981 8.275 4.56931 8.475 4.78831C8.675 5.00731 8.775 5.24781 8.775 5.50981C8.775 5.75981 8.7 5.99431 8.55 6.21331C8.4 6.43231 8.2125 6.63531 7.9875 6.82231C7.4375 7.30981 7.1 7.67856 6.975 7.92856C6.85 8.17856 6.7875 8.63481 6.7875 9.29731ZM7.5 15.1848C6.4625 15.1848 5.4875 14.9878 4.575 14.5938C3.6625 14.1998 2.86875 13.6656 2.19375 12.9911C1.51875 12.3161 0.9845 11.5223 0.591 10.6098C0.1975 9.69731 0.0005 8.72231 0 7.68481C0 6.64731 0.197 5.67231 0.591 4.75981C0.985 3.84731 1.51925 3.05356 2.19375 2.37856C2.86875 1.70356 3.6625 1.16931 4.575 0.775815C5.4875 0.382315 6.4625 0.185314 7.5 0.184814C8.5375 0.184814 9.5125 0.381815 10.425 0.775815C11.3375 1.16981 12.1312 1.70406 12.8062 2.37856C13.4812 3.05356 14.0157 3.84731 14.4097 4.75981C14.8037 5.67231 15.0005 6.64731 15 7.68481C15 8.72231 14.803 9.69731 14.409 10.6098C14.015 11.5223 13.4807 12.3161 12.8062 12.9911C12.1312 13.6661 11.3375 14.2006 10.425 14.5946C9.5125 14.9886 8.5375 15.1853 7.5 15.1848Z" fill="white" fill-opacity="0.8"/>
</svg>
