<svg width="28" height="28" viewBox="0 0 28 28" fill="none" xmlns="http://www.w3.org/2000/svg">
<g id="google 1">
<path id="Vector" d="M25.0065 11.937H24.0922V11.8899H13.8769V16.43H20.2916C19.3557 19.0729 16.8411 20.9701 13.8769 20.9701C10.116 20.9701 7.06674 17.9209 7.06674 14.16C7.06674 10.399 10.116 7.34976 13.8769 7.34976C15.613 7.34976 17.1924 8.00467 18.3949 9.07444L21.6054 5.864C19.5782 3.97474 16.8666 2.80963 13.8769 2.80963C7.60872 2.80963 2.52661 7.89174 2.52661 14.16C2.52661 20.4282 7.60872 25.5103 13.8769 25.5103C20.1452 25.5103 25.2273 20.4282 25.2273 14.16C25.2273 13.3989 25.1489 12.656 25.0065 11.937Z" fill="#FFC107"/>
<path id="Vector_2" d="M3.83545 8.87695L7.5646 11.6118C8.57364 9.1136 11.0174 7.34976 13.8771 7.34976C15.6131 7.34976 17.1925 8.00467 18.3951 9.07444L21.6055 5.864C19.5783 3.97474 16.8668 2.80963 13.8771 2.80963C9.51742 2.80963 5.73663 5.27095 3.83545 8.87695Z" fill="#FF3D00"/>
<path id="Vector_3" d="M13.8771 25.5104C16.8089 25.5104 19.4728 24.3884 21.4869 22.5638L17.974 19.5912C16.7961 20.4869 15.3569 20.9714 13.8771 20.9702C10.9249 20.9702 8.41815 19.0878 7.4738 16.4608L3.77246 19.3125C5.65094 22.9883 9.46578 25.5104 13.8771 25.5104Z" fill="#4CAF50"/>
<path id="Vector_4" d="M25.0065 11.9371H24.0922V11.89H13.877V16.4301H20.2916C19.8439 17.6879 19.0376 18.7871 17.9721 19.5917L17.9739 19.5906L21.4868 22.5632C21.2382 22.7891 25.2273 19.8352 25.2273 14.16C25.2273 13.399 25.149 12.6561 25.0065 11.9371Z" fill="#1976D2"/>
</g>
</svg>
