<svg width="23" height="24" viewBox="0 0 23 24" fill="none" xmlns="http://www.w3.org/2000/svg">
<path id="Vector" opacity="0.8" d="M11.3345 19.0818C11.7332 19.0818 12.0704 18.944 12.3461 18.6683C12.6218 18.3926 12.7592 18.0558 12.7585 17.6579C12.7585 17.2592 12.621 16.922 12.3461 16.6463C12.0712 16.3706 11.734 16.2332 11.3345 16.2339C10.9358 16.2339 10.599 16.3718 10.3241 16.6474C10.0492 16.9231 9.91137 17.2599 9.91061 17.6579C9.91061 18.0566 10.0484 18.3938 10.3241 18.6694C10.5998 18.9451 10.9366 19.0826 11.3345 19.0818ZM10.3093 14.6961H12.4167C12.4167 14.0696 12.4881 13.5759 12.6309 13.2152C12.7737 12.8545 13.1769 12.3608 13.8407 11.7343C14.3343 11.2407 14.7235 10.7706 15.0083 10.324C15.2931 9.87748 15.4355 9.34132 15.4355 8.71555C15.4355 7.65234 15.0463 6.83595 14.2679 6.26637C13.4894 5.6968 12.5686 5.41201 11.5054 5.41201C10.4232 5.41201 9.54494 5.6968 8.87056 6.26637C8.19619 6.83595 7.72648 7.51944 7.46144 8.31684L9.34103 9.05729C9.43596 8.71555 9.64974 8.34532 9.98237 7.94662C10.315 7.54792 10.8227 7.34857 11.5054 7.34857C12.113 7.34857 12.5686 7.51488 12.8724 7.84751C13.1762 8.18014 13.3281 8.54543 13.3281 8.94338C13.3281 9.32309 13.2141 9.67927 12.9863 10.0119C12.7585 10.3445 12.4737 10.6529 12.132 10.9369C11.2966 11.6773 10.784 12.2374 10.5941 12.6171C10.4042 12.9969 10.3093 13.6898 10.3093 14.6961ZM11.3915 23.6384C9.81568 23.6384 8.33478 23.3392 6.94882 22.7408C5.56285 22.1423 4.35725 21.3309 3.33202 20.3064C2.30678 19.2812 1.49532 18.0756 0.897651 16.6896C0.299976 15.3036 0.000759434 13.8227 0 12.2469C0 10.6711 0.299217 9.19019 0.897651 7.80423C1.49608 6.41826 2.30754 5.21266 3.33202 4.18742C4.35725 3.16219 5.56285 2.35073 6.94882 1.75306C8.33478 1.15538 9.81568 0.856167 11.3915 0.855408C12.9673 0.855408 14.4482 1.15462 15.8342 1.75306C17.2202 2.35149 18.4258 3.16295 19.451 4.18742C20.4762 5.21266 21.2881 6.41826 21.8865 7.80423C22.4849 9.19019 22.7838 10.6711 22.783 12.2469C22.783 13.8227 22.4838 15.3036 21.8854 16.6896C21.2869 18.0756 20.4755 19.2812 19.451 20.3064C18.4258 21.3316 17.2202 22.1435 15.8342 22.7419C14.4482 23.3403 12.9673 23.6392 11.3915 23.6384Z" fill="white" fill-opacity="0.8"/>
</svg>
