<svg width="40" height="47" viewBox="0 0 40 47" fill="none" xmlns="http://www.w3.org/2000/svg">
<path opacity="0.5" d="M19.6667 32.2303C30.2806 32.2303 38.8848 25.0601 38.8848 16.2152C38.8848 7.37024 30.2806 0.200012 19.6667 0.200012C9.05276 0.200012 0.448486 7.37024 0.448486 16.2152C0.448486 25.0601 9.05276 32.2303 19.6667 32.2303Z" fill="#0071D5"/>
<path d="M10.6756 10.2664V8.6658H13.4641V16.0145H11.6722V10.2664H10.6756ZM14.4504 12.2395C14.4504 11.0852 14.6719 10.1758 15.1148 9.5114C15.5644 8.847 16.2859 8.5148 17.2791 8.5148C18.2724 8.5148 18.9905 8.847 19.4334 9.5114C19.883 10.1758 20.1079 11.0852 20.1079 12.2395C20.1079 13.4072 19.883 14.3233 19.4334 14.9877C18.9905 15.6521 18.2724 15.9843 17.2791 15.9843C16.2859 15.9843 15.5644 15.6521 15.1148 14.9877C14.6719 14.3233 14.4504 13.4072 14.4504 12.2395ZM18.4167 12.2395C18.4167 11.5616 18.3428 11.0415 18.1952 10.6791C18.0476 10.31 17.7422 10.1255 17.2791 10.1255C16.8161 10.1255 16.5107 10.31 16.3631 10.6791C16.2154 11.0415 16.1416 11.5616 16.1416 12.2395C16.1416 12.6958 16.1684 13.075 16.2221 13.377C16.2758 13.6723 16.3832 13.9139 16.5443 14.1018C16.712 14.283 16.957 14.3736 17.2791 14.3736C17.6013 14.3736 17.8429 14.283 18.0039 14.1018C18.1717 13.9139 18.2824 13.6723 18.3361 13.377C18.3898 13.075 18.4167 12.6958 18.4167 12.2395ZM20.8261 12.2395C20.8261 11.0852 21.0475 10.1758 21.4905 9.5114C21.9401 8.847 22.6615 8.5148 23.6548 8.5148C24.648 8.5148 25.3661 8.847 25.8091 9.5114C26.2587 10.1758 26.4835 11.0852 26.4835 12.2395C26.4835 13.4072 26.2587 14.3233 25.8091 14.9877C25.3661 15.6521 24.648 15.9843 23.6548 15.9843C22.6615 15.9843 21.9401 15.6521 21.4905 14.9877C21.0475 14.3233 20.8261 13.4072 20.8261 12.2395ZM24.7923 12.2395C24.7923 11.5616 24.7185 11.0415 24.5709 10.6791C24.4232 10.31 24.1179 10.1255 23.6548 10.1255C23.1917 10.1255 22.8864 10.31 22.7387 10.6791C22.5911 11.0415 22.5173 11.5616 22.5173 12.2395C22.5173 12.6958 22.5441 13.075 22.5978 13.377C22.6515 13.6723 22.7589 13.9139 22.9199 14.1018C23.0877 14.283 23.3327 14.3736 23.6548 14.3736C23.9769 14.3736 24.2185 14.283 24.3796 14.1018C24.5474 13.9139 24.6581 13.6723 24.7118 13.377C24.7655 13.075 24.7923 12.6958 24.7923 12.2395Z" fill="white"/>
<path d="M9.3412 21.0234V21.8592H10.6892V22.6362H9.3412V23.5427H10.8658V24.3492H8.33464V20.217H10.8658V21.0234H9.3412ZM13.0555 21.9004H12.514V24.3492H11.5075V21.9004H11.1425V21.0646H11.5075V20.9704C11.5075 20.5662 11.6232 20.2601 11.8547 20.0521C12.0863 19.8402 12.4257 19.7343 12.8731 19.7343C12.9476 19.7343 13.0026 19.7362 13.0379 19.7402V20.5937C12.8456 20.5819 12.7102 20.6094 12.6317 20.6761C12.5533 20.7428 12.514 20.8625 12.514 21.0352V21.0646H13.0555V21.9004ZM15.0648 21.9004H14.5233V24.3492H13.5167V21.9004H13.1518V21.0646H13.5167V20.9704C13.5167 20.5662 13.6325 20.2601 13.864 20.0521C14.0956 19.8402 14.435 19.7343 14.8824 19.7343C14.9569 19.7343 15.0119 19.7362 15.0472 19.7402V20.5937C14.8549 20.5819 14.7195 20.6094 14.641 20.6761C14.5626 20.7428 14.5233 20.8625 14.5233 21.0352V21.0646H15.0648V21.9004ZM15.9322 20.7232C15.7556 20.7232 15.6104 20.6722 15.4966 20.5701C15.3867 20.4642 15.3318 20.3347 15.3318 20.1816C15.3318 20.0247 15.3867 19.8952 15.4966 19.7932C15.6104 19.6872 15.7556 19.6342 15.9322 19.6342C16.1049 19.6342 16.2461 19.6872 16.356 19.7932C16.4698 19.8952 16.5267 20.0247 16.5267 20.1816C16.5267 20.3347 16.4698 20.4642 16.356 20.5701C16.2461 20.6722 16.1049 20.7232 15.9322 20.7232ZM16.4325 21.0646V24.3492H15.426V21.0646H16.4325ZM16.85 22.7069C16.85 22.3655 16.9187 22.0672 17.056 21.8122C17.1973 21.5571 17.3915 21.3609 17.6388 21.2235C17.8899 21.0862 18.1764 21.0175 18.4982 21.0175C18.9102 21.0175 19.2536 21.1254 19.5283 21.3412C19.8069 21.5571 19.9894 21.8612 20.0757 22.2536H19.0044C18.9141 22.0025 18.7395 21.8769 18.4805 21.8769C18.2961 21.8769 18.1489 21.9495 18.039 22.0947C17.9292 22.236 17.8742 22.44 17.8742 22.7069C17.8742 22.9737 17.9292 23.1797 18.039 23.3249C18.1489 23.4662 18.2961 23.5368 18.4805 23.5368C18.7395 23.5368 18.9141 23.4113 19.0044 23.1601H20.0757C19.9894 23.5447 19.8069 23.8469 19.5283 24.0666C19.2497 24.2864 18.9063 24.3962 18.4982 24.3962C18.1764 24.3962 17.8899 24.3276 17.6388 24.1902C17.3915 24.0529 17.1973 23.8567 17.056 23.6016C16.9187 23.3465 16.85 23.0483 16.85 22.7069ZM21.0085 20.7232C20.8319 20.7232 20.6867 20.6722 20.5729 20.5701C20.463 20.4642 20.4081 20.3347 20.4081 20.1816C20.4081 20.0247 20.463 19.8952 20.5729 19.7932C20.6867 19.6872 20.8319 19.6342 21.0085 19.6342C21.1812 19.6342 21.3224 19.6872 21.4323 19.7932C21.5461 19.8952 21.603 20.0247 21.603 20.1816C21.603 20.3347 21.5461 20.4642 21.4323 20.5701C21.3224 20.6722 21.1812 20.7232 21.0085 20.7232ZM21.5088 21.0646V24.3492H20.5023V21.0646H21.5088ZM25.2226 22.6539C25.2226 22.7481 25.2167 22.8462 25.205 22.9482H22.927C22.9427 23.1523 23.0074 23.3092 23.1212 23.4191C23.2389 23.5251 23.3822 23.578 23.5509 23.578C23.8021 23.578 23.9767 23.4721 24.0748 23.2602H25.1461C25.0912 23.476 24.9911 23.6703 24.8459 23.8429C24.7046 24.0156 24.5261 24.151 24.3103 24.2491C24.0944 24.3472 23.8531 24.3962 23.5862 24.3962C23.2645 24.3962 22.978 24.3276 22.7268 24.1902C22.4757 24.0529 22.2795 23.8567 22.1382 23.6016C21.9969 23.3465 21.9263 23.0483 21.9263 22.7069C21.9263 22.3655 21.995 22.0672 22.1323 21.8122C22.2736 21.5571 22.4698 21.3609 22.721 21.2235C22.9721 21.0862 23.2605 21.0175 23.5862 21.0175C23.9041 21.0175 24.1866 21.0842 24.4339 21.2176C24.6811 21.3511 24.8734 21.5414 25.0107 21.7886C25.152 22.0358 25.2226 22.3243 25.2226 22.6539ZM24.1925 22.389C24.1925 22.2163 24.1337 22.079 24.0159 21.977C23.8982 21.8749 23.7511 21.8239 23.5745 21.8239C23.4057 21.8239 23.2625 21.873 23.1448 21.9711C23.031 22.0692 22.9603 22.2085 22.9329 22.389H24.1925ZM27.6431 21.0293C28.0277 21.0293 28.3338 21.1548 28.5614 21.406C28.7929 21.6532 28.9087 21.9946 28.9087 22.4302V24.3492H27.908V22.5656C27.908 22.3458 27.8511 22.1751 27.7373 22.0535C27.6235 21.9318 27.4705 21.871 27.2782 21.871C27.0859 21.871 26.9329 21.9318 26.8191 22.0535C26.7053 22.1751 26.6484 22.3458 26.6484 22.5656V24.3492H25.6418V21.0646H26.6484V21.5002C26.7504 21.355 26.8877 21.2412 27.0604 21.1588C27.2331 21.0724 27.4273 21.0293 27.6431 21.0293ZM31.327 23.4956V24.3492H30.8149C30.4499 24.3492 30.1654 24.2609 29.9613 24.0843C29.7573 23.9038 29.6553 23.6114 29.6553 23.2072V21.9004H29.255V21.0646H29.6553V20.2641H30.6618V21.0646H31.3211V21.9004H30.6618V23.219C30.6618 23.3171 30.6854 23.3877 30.7324 23.4309C30.7795 23.4741 30.858 23.4956 30.9679 23.4956H31.327Z" fill="white"/>
<path d="M5.10912 29.4848L4.47178 30.8576L2.38981 36.1723C0.337257 41.4161 -0.689021 44.038 0.680438 45.4725C1.16089 45.9758 1.80477 46.3785 2.55323 46.6462C4.68423 47.4058 7.97877 46.2046 14.5646 43.8024C16.7544 43.0016 17.8526 42.6035 19.0162 42.5166C19.4508 42.4845 19.8823 42.4845 20.317 42.5166C21.4805 42.6035 22.5754 43.0016 24.7685 43.8024C31.3544 46.2046 34.6489 47.4058 36.7799 46.6462C37.5284 46.3785 38.1722 45.9758 38.6527 45.4725C40.0254 44.038 38.9959 41.4161 36.9433 36.1723L34.8613 30.8576L34.224 29.4848C30.2692 31.7727 25.1967 33.1454 19.6666 33.1454C14.1364 33.1454 9.06388 31.7727 5.10912 29.4848Z" fill="#B4DCFF"/>
</svg>
