<svg width="32" height="32" viewBox="0 0 32 32" fill="none" xmlns="http://www.w3.org/2000/svg">
<g id="location-28-regular 2">
<path id="Vector" d="M16.1343 2.97571C18.9711 2.97571 21.6916 4.10259 23.6975 6.10846C25.7033 8.11433 26.8302 10.8349 26.8302 13.6716C26.8302 18.1913 23.6544 23.1169 17.3849 28.5011C17.0363 28.8005 16.5918 28.965 16.1323 28.9646C15.6727 28.9642 15.2285 28.7989 14.8804 28.4989L14.4658 28.139C8.47387 22.8953 5.43843 18.0904 5.43843 13.6716C5.43843 10.8349 6.56532 8.11433 8.57119 6.10846C10.5771 4.10259 13.2976 2.97571 16.1343 2.97571ZM16.1343 4.62123C13.734 4.62123 11.432 5.57475 9.73475 7.27202C8.03747 8.9693 7.08395 11.2713 7.08395 13.6716C7.08395 17.5134 9.87915 21.9398 15.5463 26.8983L15.9555 27.2526C16.0053 27.2954 16.0687 27.319 16.1343 27.319C16.1999 27.319 16.2634 27.2954 16.3131 27.2526C22.2546 22.1493 25.1847 17.6044 25.1847 13.6716C25.1847 12.4831 24.9506 11.3062 24.4958 10.2082C24.041 9.11013 23.3743 8.11243 22.5339 7.27202C21.6935 6.43162 20.6958 5.76497 19.5978 5.31015C18.4997 4.85533 17.3228 4.62123 16.1343 4.62123ZM16.1343 9.5578C17.2254 9.5578 18.2717 9.99122 19.0432 10.7627C19.8147 11.5342 20.2481 12.5806 20.2481 13.6716C20.2481 14.7627 19.8147 15.809 19.0432 16.5805C18.2717 17.352 17.2254 17.7854 16.1343 17.7854C15.0433 17.7854 13.9969 17.352 13.2254 16.5805C12.4539 15.809 12.0205 14.7627 12.0205 13.6716C12.0205 12.5806 12.4539 11.5342 13.2254 10.7627C13.9969 9.99122 15.0433 9.5578 16.1343 9.5578ZM16.1343 11.2033C15.4797 11.2033 14.8519 11.4634 14.389 11.9263C13.9261 12.3892 13.666 13.017 13.666 13.6716C13.666 14.3262 13.9261 14.9541 14.389 15.4169C14.8519 15.8798 15.4797 16.1399 16.1343 16.1399C16.789 16.1399 17.4168 15.8798 17.8797 15.4169C18.3426 14.9541 18.6026 14.3262 18.6026 13.6716C18.6026 13.017 18.3426 12.3892 17.8797 11.9263C17.4168 11.4634 16.789 11.2033 16.1343 11.2033Z" fill="#173877"/>
</g>
</svg>
