<svg width="16" height="22" viewBox="0 0 16 22" fill="none" xmlns="http://www.w3.org/2000/svg">
<g id="Group">
<path id="Vector" d="M6.96171 0.0482969C4.6254 0.467967 2.90346 1.91734 2.32371 3.95944C2.23718 4.27528 2.22853 4.39642 2.21555 6.27411L2.19824 8.25565L2.57897 7.97442C2.78664 7.81867 3.17603 7.56773 3.44427 7.42063L3.92884 7.14806L3.93316 5.93232C3.93316 4.86801 3.94182 4.67764 4.01969 4.38344C4.34851 3.09415 5.5556 2.08175 7.12611 1.77889C7.58905 1.69236 8.49328 1.70102 8.97352 1.80053C10.4791 2.11203 11.6603 3.12876 11.9804 4.38344C12.0583 4.67764 12.067 4.86368 12.067 5.93665V7.15239L12.2314 7.23027C12.5083 7.36439 13.0923 7.72781 13.4558 7.99606L13.8019 8.25565L13.7889 6.27411L13.7716 4.29258L13.6591 3.9032C13.1096 1.99954 11.5175 0.593435 9.37156 0.113194C8.85671 -0.00362015 7.45925 -0.0382328 6.96171 0.0482969Z" fill="white"/>
<path id="Vector_2" d="M6.8232 7.49851C5.60745 7.68455 4.3744 8.18209 3.37066 8.89164C2.83417 9.26804 1.83475 10.2675 1.45402 10.8039C0.887254 11.6087 0.372401 12.7941 0.169057 13.7546C0.0133029 14.4944 -0.012656 14.9833 0.00464997 17.0341C0.0262824 19.2536 0.0219559 19.2146 0.368075 19.9112C0.813703 20.8111 1.56651 21.4514 2.54863 21.7586L2.87311 21.8581H8H13.1269L13.4514 21.7586C14.4335 21.4514 15.1863 20.8111 15.6319 19.9112C15.978 19.2146 15.9737 19.2536 15.9954 17.0341C16.0127 14.9833 15.9867 14.4944 15.8309 13.7546C15.3334 11.401 13.7326 9.33294 11.565 8.25564C10.7733 7.86193 10.0205 7.62398 9.14652 7.49418C8.61003 7.41198 7.3467 7.41631 6.8232 7.49851ZM9.34121 9.28102C11.9717 9.89971 13.9057 12.0283 14.2301 14.6545C14.2604 14.9271 14.2734 15.6929 14.2648 16.9259L14.2518 18.7863L14.1133 19.0805C13.9316 19.4656 13.6115 19.7987 13.2437 19.9804L12.9538 20.1275H8H3.04617L2.80389 20.0064C2.32365 19.7728 1.97753 19.3834 1.81312 18.8945C1.72227 18.6262 1.72227 18.5743 1.73957 16.5841C1.75255 14.9098 1.76986 14.4901 1.8261 14.2219C2.01647 13.3436 2.3972 12.4653 2.88176 11.7861C3.2149 11.3188 3.90282 10.6309 4.38738 10.2891C5.04934 9.82183 5.94492 9.43678 6.74532 9.27237C7.24719 9.16853 7.27748 9.16853 8.15143 9.18151C8.77877 9.19449 9.05999 9.21612 9.34121 9.28102Z" fill="white"/>
<path id="Vector_3" d="M6.98325 10.4578C5.21372 10.8299 3.773 12.1105 3.2019 13.8152C2.96395 14.5291 2.93799 14.793 2.93799 16.7183C2.93799 18.6522 2.94231 18.6911 3.20623 18.8512C3.349 18.9377 3.40958 18.9377 7.99998 18.9377C12.5904 18.9377 12.651 18.9377 12.7937 18.8512C13.0576 18.6911 13.062 18.6522 13.062 16.7183C13.062 15.3338 13.049 14.8882 12.9971 14.5853C12.6336 12.5086 11.0545 10.8775 9.00805 10.4622C8.4283 10.341 7.54137 10.341 6.98325 10.4578ZM10.518 12.9931C10.8208 13.2051 10.9506 13.5642 10.8555 13.919C10.8122 14.0921 10.6478 14.2695 9.37148 15.5544C8.57973 16.3505 7.86153 17.0341 7.775 17.0817C7.59762 17.1725 7.29476 17.1898 7.1044 17.1163C7.0395 17.0903 6.58954 16.6793 6.10498 16.1991C5.44303 15.5371 5.21372 15.2819 5.1618 15.1434C4.97144 14.6459 5.33486 14.0661 5.87135 14.0142C6.23477 13.9796 6.37322 14.0575 6.91836 14.5939L7.42023 15.0872L8.45426 14.0445C9.09458 13.4042 9.55752 12.9672 9.66568 12.9196C9.92094 12.7941 10.28 12.8244 10.518 12.9931Z" fill="white"/>
</g>
</svg>
