<svg width="18" height="18" viewBox="0 0 18 18" fill="none" xmlns="http://www.w3.org/2000/svg">
<circle cx="9.41508" cy="9.41499" r="8.585" fill="#AEB3C3"/>
<path d="M6.76789 5.36081C8.57618 5.36236 8.40988 7.82194 8.40926 8.80584C8.40802 10.0614 8.7162 12.5958 7.74776 13.5606C6.76047 14.5435 4.78742 15.0341 3.80167 14.2134C2.81592 13.3924 4.46626 5.35896 6.76789 5.36081ZM11.3863 5.36452C9.578 5.36297 9.74028 7.82287 9.73936 8.80676C9.73843 10.0627 9.42592 12.5964 10.3931 13.5627C11.3786 14.5475 13.351 15.0409 14.338 14.2221C15.325 13.4029 13.6879 5.36637 11.3863 5.36452Z" fill="#304D81"/>
<path fill-rule="evenodd" clip-rule="evenodd" d="M8.76937 3.50894H9.38759L9.38419 7.98917C9.38357 8.63861 9.09394 9.01078 8.76628 9.2018C8.57992 9.30913 8.37036 9.36979 8.15548 9.37862H8.14744V8.7604H8.14435H8.1459C8.17527 8.75861 8.20449 8.75489 8.23338 8.74927C8.29643 8.7369 8.37711 8.7131 8.45532 8.66766C8.59132 8.58853 8.76535 8.42038 8.76597 7.98855L8.76937 3.50894Z" fill="#304D81"/>
<path fill-rule="evenodd" clip-rule="evenodd" d="M9.38759 3.50894H8.76937L8.76597 7.98855C8.76535 8.63799 9.05406 9.01078 9.38141 9.20242C9.56762 9.30992 9.77707 9.37079 9.9919 9.37985H10.0006L10.0012 9.07074C10.0012 8.76163 10.0018 8.76163 10.0018 8.76163H10.0046H10.003C10.0002 8.76163 9.99499 8.76163 9.98726 8.76071C9.88396 8.75161 9.78387 8.72018 9.69392 8.66859C9.55791 8.58915 9.38388 8.42099 9.3845 7.98917L9.38759 3.50894Z" fill="#304D81"/>
</svg>
