<svg width="13" height="14" viewBox="0 0 13 14" fill="none" xmlns="http://www.w3.org/2000/svg">
<path id="Vector" d="M4.33333 0.0924072H1.44444C1.06135 0.0924072 0.693954 0.244589 0.423068 0.515475C0.152182 0.786361 0 1.15376 0 1.53685V4.42574C0 4.80883 0.152182 5.17623 0.423068 5.44712C0.693954 5.718 1.06135 5.87018 1.44444 5.87018H4.33333C4.71642 5.87018 5.08382 5.718 5.35471 5.44712C5.6256 5.17623 5.77778 4.80883 5.77778 4.42574V1.53685C5.77778 1.15376 5.6256 0.786361 5.35471 0.515475C5.08382 0.244589 4.71642 0.0924072 4.33333 0.0924072ZM4.33333 7.31463H1.44444C1.06135 7.31463 0.693954 7.46681 0.423068 7.7377C0.152182 8.00858 0 8.37598 0 8.75907V11.648C0 12.0311 0.152182 12.3985 0.423068 12.6693C0.693954 12.9402 1.06135 13.0924 1.44444 13.0924H4.33333C4.71642 13.0924 5.08382 12.9402 5.35471 12.6693C5.6256 12.3985 5.77778 12.0311 5.77778 11.648V8.75907C5.77778 8.37598 5.6256 8.00858 5.35471 7.7377C5.08382 7.46681 4.71642 7.31463 4.33333 7.31463ZM11.5556 7.31463H8.66667C8.28358 7.31463 7.91618 7.46681 7.64529 7.7377C7.3744 8.00858 7.22222 8.37598 7.22222 8.75907V11.648C7.22222 12.0311 7.3744 12.3985 7.64529 12.6693C7.91618 12.9402 8.28358 13.0924 8.66667 13.0924H11.5556C11.9386 13.0924 12.306 12.9402 12.5769 12.6693C12.8478 12.3985 13 12.0311 13 11.648V8.75907C13 8.37598 12.8478 8.00858 12.5769 7.7377C12.306 7.46681 11.9386 7.31463 11.5556 7.31463ZM10.1111 0.0924072C10.288 0.0924306 10.4587 0.157376 10.5909 0.274924C10.7231 0.392472 10.8076 0.554448 10.8283 0.730129L10.8333 0.814629V2.25907H12.2778C12.4619 2.25928 12.6389 2.32976 12.7728 2.45613C12.9066 2.5825 12.9872 2.75521 12.998 2.93897C13.0087 3.12273 12.949 3.30368 12.8308 3.44484C12.7127 3.586 12.5451 3.67672 12.3623 3.69846L12.2778 3.70352H10.8333V5.14796C10.8331 5.33204 10.7626 5.5091 10.6363 5.64295C10.5099 5.7768 10.3372 5.85735 10.1534 5.86814C9.96967 5.87893 9.78873 5.81914 9.64756 5.70099C9.5064 5.58285 9.41569 5.41525 9.39394 5.23246L9.38889 5.14796V3.70352H7.94444C7.76036 3.70331 7.58331 3.63283 7.44946 3.50646C7.3156 3.38009 7.23505 3.20739 7.22426 3.02362C7.21348 2.83986 7.27326 2.65891 7.39141 2.51775C7.50956 2.37659 7.67715 2.28587 7.85994 2.26413L7.94444 2.25907H9.38889V0.814629C9.38889 0.623084 9.46498 0.439384 9.60042 0.303941C9.73586 0.168498 9.91957 0.0924072 10.1111 0.0924072Z" fill="#B3BBCD"/>
</svg>
