<svg width="28" height="27" viewBox="0 0 28 27" fill="none" xmlns="http://www.w3.org/2000/svg">
<g id="Vector">
<mask id="path-1-inside-1_1492_915" fill="white">
<path d="M24.6339 21.0585V22.2972H2.46341V21.0585L4.9268 18.581V11.1486C4.9268 7.30853 7.42714 3.92679 11.0853 2.8367V2.47747C11.0853 1.8204 11.3448 1.19025 11.8068 0.725634C12.2688 0.261018 12.8953 0 13.5487 0C14.202 0 14.8286 0.261018 15.2905 0.725634C15.7525 1.19025 16.0121 1.8204 16.0121 2.47747V2.8367C19.6702 3.92679 22.1705 7.30853 22.1705 11.1486V18.581L24.6339 21.0585ZM16.0121 23.536C16.0121 24.193 15.7525 24.8232 15.2905 25.2878C14.8286 25.7524 14.202 26.0134 13.5487 26.0134C12.8953 26.0134 12.2688 25.7524 11.8068 25.2878C11.3448 24.8232 11.0853 24.193 11.0853 23.536M23.0943 1.47409L21.3453 3.2331C22.387 4.26796 23.2141 5.5005 23.7787 6.85927C24.3432 8.21804 24.6339 9.676 24.6339 11.1486H27.0973C27.0973 7.51912 25.6685 4.02589 23.0943 1.47409ZM2.33975e-05 11.1486H2.46341C2.46341 8.17565 3.64584 5.32656 5.75204 3.2331L4.00303 1.47409C2.73178 2.73955 1.72325 4.24647 1.03605 5.90729C0.348858 7.56811 -0.00330665 9.34973 2.33975e-05 11.1486Z"/>
</mask>
<path d="M24.6339 21.0585H26.6339V20.2334L26.0522 19.6483L24.6339 21.0585ZM24.6339 22.2972V24.2972H26.6339V22.2972H24.6339ZM2.46341 22.2972H0.463414V24.2972H2.46341V22.2972ZM2.46341 21.0585L1.04518 19.6483L0.463414 20.2334V21.0585H2.46341ZM4.9268 18.581L6.34504 19.9912L6.9268 19.4061V18.581H4.9268ZM11.0853 2.8367L11.6564 4.75341L13.0853 4.32763V2.8367H11.0853ZM13.5487 0V-2V0ZM16.0121 2.8367H14.0121V4.32763L15.4409 4.75341L16.0121 2.8367ZM22.1705 18.581H20.1705V19.4061L20.7523 19.9912L22.1705 18.581ZM23.0943 1.47409L24.5023 0.0537003L23.0841 -1.35215L21.6761 0.0639153L23.0943 1.47409ZM21.3453 3.2331L19.9271 1.82292L18.5162 3.24181L19.9358 4.65198L21.3453 3.2331ZM24.6339 11.1486L22.6339 11.1487L22.634 13.1486H24.6339V11.1486ZM27.0973 11.1486V13.1486H29.0973V11.1486H27.0973ZM2.33975e-05 11.1486L-1.99997 11.1523L-1.99628 13.1486H2.33975e-05V11.1486ZM2.46341 11.1486V13.1486H4.46341V11.1486H2.46341ZM5.75204 3.2331L7.16196 4.65159L8.58071 3.24142L7.17028 1.82292L5.75204 3.2331ZM4.00303 1.47409L5.42127 0.0639156L4.0103 -1.35512L2.59206 0.0566495L4.00303 1.47409ZM22.6339 21.0585V22.2972H26.6339V21.0585H22.6339ZM24.6339 20.2972H2.46341V24.2972H24.6339V20.2972ZM4.46341 22.2972V21.0585H0.463414V22.2972H4.46341ZM3.88165 22.4687L6.34504 19.9912L3.50857 17.1708L1.04518 19.6483L3.88165 22.4687ZM6.9268 18.581V11.1486H2.9268V18.581H6.9268ZM6.9268 11.1486C6.9268 8.18239 8.85628 5.58783 11.6564 4.75341L10.5141 0.919992C5.99801 2.26575 2.9268 6.43468 2.9268 11.1486H6.9268ZM13.0853 2.8367V2.47747H9.08528V2.8367H13.0853ZM13.0853 2.47747C13.0853 2.34717 13.1369 2.22449 13.225 2.13581L10.3886 -0.684545C9.55278 0.156008 9.08528 1.29363 9.08528 2.47747H13.0853ZM13.225 2.13581C13.3128 2.04752 13.4295 2 13.5487 2V-2C12.3612 -2 11.2247 -1.52548 10.3886 -0.684545L13.225 2.13581ZM13.5487 2C13.6679 2 13.7845 2.04752 13.8723 2.13581L16.7088 -0.684545C15.8726 -1.52548 14.7361 -2 13.5487 -2V2ZM13.8723 2.13581C13.9605 2.22449 14.0121 2.34717 14.0121 2.47747H18.0121C18.0121 1.29363 17.5446 0.156008 16.7088 -0.684545L13.8723 2.13581ZM14.0121 2.47747V2.8367H18.0121V2.47747H14.0121ZM15.4409 4.75341C18.2411 5.58783 20.1705 8.18239 20.1705 11.1486H24.1705C24.1705 6.43468 21.0993 2.26575 16.5832 0.919992L15.4409 4.75341ZM20.1705 11.1486V18.581H24.1705V11.1486H20.1705ZM20.7523 19.9912L23.2157 22.4687L26.0522 19.6483L23.5888 17.1708L20.7523 19.9912ZM14.0121 23.536C14.0121 23.6662 13.9605 23.7889 13.8723 23.8776L16.7088 26.698C17.5446 25.8574 18.0121 24.7198 18.0121 23.536H14.0121ZM13.8723 23.8776C13.7845 23.9659 13.6679 24.0134 13.5487 24.0134V28.0134C14.7361 28.0134 15.8726 27.5389 16.7088 26.698L13.8723 23.8776ZM13.5487 24.0134C13.4295 24.0134 13.3128 23.9659 13.225 23.8776L10.3886 26.698C11.2247 27.5389 12.3612 28.0134 13.5487 28.0134V24.0134ZM13.225 23.8776C13.1369 23.7889 13.0853 23.6662 13.0853 23.536H9.08528C9.08528 24.7198 9.55278 25.8574 10.3886 26.698L13.225 23.8776ZM21.6761 0.0639153L19.9271 1.82292L22.7635 4.64328L24.5125 2.88427L21.6761 0.0639153ZM19.9358 4.65198C20.7897 5.50029 21.4683 6.51127 21.9317 7.62661L25.6256 6.09193C24.9599 4.48974 23.9844 3.03563 22.7548 1.81421L19.9358 4.65198ZM21.9317 7.62661C22.3951 8.74198 22.6339 9.93916 22.6339 11.1487L26.6339 11.1486C26.6339 9.41283 26.2912 7.6941 25.6256 6.09193L21.9317 7.62661ZM24.6339 13.1486H27.0973V9.14861H24.6339V13.1486ZM29.0973 11.1486C29.0973 6.99623 27.4629 2.98844 24.5023 0.0537003L21.6863 2.89449C23.8742 5.06333 25.0973 8.042 25.0973 11.1486H29.0973ZM2.33975e-05 13.1486H2.46341V9.14861H2.33975e-05V13.1486ZM4.46341 11.1486C4.46341 8.7066 5.43458 6.36852 7.16196 4.65159L4.34212 1.8146C1.8571 4.28459 0.463414 7.6447 0.463414 11.1486H4.46341ZM7.17028 1.82292L5.42127 0.0639156L2.58479 2.88427L4.3338 4.64327L7.17028 1.82292ZM2.59206 0.0566495C1.133 1.50905 -0.023907 3.23796 -0.811995 5.14262L2.8841 6.67195C3.47041 5.25497 4.33056 3.97004 5.41401 2.89154L2.59206 0.0566495ZM-0.811995 5.14262C-1.60007 7.04726 -2.00379 9.09002 -1.99997 11.1523L2.00002 11.1449C1.99718 9.60943 2.29779 8.08896 2.8841 6.67195L-0.811995 5.14262Z" fill="url(#paint0_linear_1492_915)" mask="url(#path-1-inside-1_1492_915)"/>
</g>
<defs>
<linearGradient id="paint0_linear_1492_915" x1="13.5487" y1="0" x2="13.5487" y2="26.0134" gradientUnits="userSpaceOnUse">
<stop stop-color="#193C7D"/>
<stop offset="1" stop-color="#1D2E4F"/>
</linearGradient>
</defs>
</svg>
