<svg width="13" height="14" viewBox="0 0 13 14" fill="none" xmlns="http://www.w3.org/2000/svg">
<path id="Vector" d="M0.859444 2.04874C0.339444 2.23946 0 2.66857 0 3.1394V5.94054C0 9.24828 2.77333 12.3415 6.5 13.0924C10.2267 12.3415 13 9.24828 13 5.94054V3.1394C13 2.66857 12.6606 2.23946 12.1406 2.04874L7.085 0.195215C6.70944 0.0581379 6.28333 0.0581379 5.915 0.195215L0.859444 2.04874ZM6.5 3.55659C6.89722 3.55659 7.22222 3.82479 7.22222 4.15258C7.22222 4.48037 6.89722 4.74857 6.5 4.74857C6.10278 4.74857 5.77778 4.48037 5.77778 4.15258C5.77778 3.82479 6.10278 3.55659 6.5 3.55659ZM6.5 5.94054C6.89722 5.94054 7.22222 6.20874 7.22222 6.53653V8.92049C7.22222 9.24828 6.89722 9.51648 6.5 9.51648C6.10278 9.51648 5.77778 9.24828 5.77778 8.92049V6.53653C5.77778 6.20874 6.10278 5.94054 6.5 5.94054Z" fill="#B2BBCD"/>
</svg>
