<svg width="59" height="53" viewBox="0 0 59 53" fill="none" xmlns="http://www.w3.org/2000/svg">
<g id="Group" filter="url(#filter0_d_790_165)">
<path id="Vector" fill-rule="evenodd" clip-rule="evenodd" d="M16.6485 29.2709C16.6485 29.5695 16.5896 29.8652 16.4754 30.141C16.3611 30.4169 16.1936 30.6676 15.9825 30.8787C15.7713 31.0899 15.5207 31.2573 15.2448 31.3716C14.9689 31.4859 14.6732 31.5447 14.3746 31.5447C14.076 31.5447 13.7804 31.4859 13.5045 31.3716C13.2286 31.2573 12.978 31.0899 12.7668 30.8787C12.5557 30.6676 12.3882 30.4169 12.2739 30.141C12.1596 29.8652 12.1008 29.5695 12.1008 29.2709C12.1008 28.6678 12.3404 28.0895 12.7668 27.6631C13.1932 27.2366 13.7716 26.9971 14.3746 26.9971C14.9777 26.9971 15.5561 27.2366 15.9825 27.6631C16.4089 28.0895 16.6485 28.6678 16.6485 29.2709ZM47.2442 29.2709C47.2442 29.8739 47.0047 30.4523 46.5782 30.8787C46.1518 31.3051 45.5735 31.5447 44.9704 31.5447C44.3674 31.5447 43.789 31.3051 43.3626 30.8787C42.9361 30.4523 42.6966 29.8739 42.6966 29.2709C42.6966 28.6678 42.9361 28.0895 43.3626 27.6631C43.789 27.2366 44.3674 26.9971 44.9704 26.9971C45.5735 26.9971 46.1518 27.2366 46.5782 27.6631C47.0047 28.0895 47.2442 28.6678 47.2442 29.2709Z" fill="#00A6ED"/>
<path id="Vector_2" fill-rule="evenodd" clip-rule="evenodd" d="M21.412 14.5486L25.9885 20.6936L16.5046 21.7874L19.5556 14.7501C18.8216 14.4622 18.3035 13.7427 18.3035 12.908C18.3035 11.8143 19.1958 10.922 20.2895 10.922C20.7128 10.9242 21.1243 11.0614 21.4643 11.3134C21.8044 11.5655 22.0552 11.9194 22.1803 12.3238C22.3055 12.7281 22.2985 13.1618 22.1603 13.5619C22.0221 13.962 21.76 14.3076 21.412 14.5486ZM39.7753 14.7501L42.8262 21.7874L33.3424 20.6936L37.9188 14.5486C37.4007 14.1888 37.0553 13.5844 37.0553 12.908C37.0553 11.8143 37.9476 10.922 39.0413 10.922C40.135 10.922 41.0273 11.8143 41.0273 12.908C41.0273 13.7427 40.5092 14.4622 39.7753 14.7501Z" fill="#E19747"/>
<path id="Vector_3" d="M49.806 14.2896C49.806 13.1958 48.9137 12.3036 47.82 12.3036C46.7262 12.3036 45.834 13.1958 45.834 14.2896C45.834 14.6925 45.9635 15.0811 46.165 15.3833C45.8484 15.3833 45.5318 15.4553 45.2296 15.6567L39.5738 19.3121C38.8255 19.787 37.8469 19.6143 37.3144 18.8948L31.0254 10.3608C30.9806 10.2921 30.9274 10.2293 30.8671 10.1737C31.3485 9.90865 31.7281 9.49105 31.9461 8.98662C32.1641 8.48219 32.2082 7.91958 32.0714 7.38736C31.9346 6.85514 31.6246 6.38353 31.1904 6.04679C30.7561 5.71004 30.2222 5.52728 29.6726 5.52728C29.1231 5.52728 28.5892 5.71004 28.1549 6.04679C27.7207 6.38353 27.4107 6.85514 27.2739 7.38736C27.1371 7.91958 27.1812 8.48219 27.3992 8.98662C27.6172 9.49105 27.9968 9.90865 28.4782 10.1737C28.4206 10.2312 28.363 10.2888 28.3199 10.3608L22.0309 18.8948C21.5128 19.6143 20.5198 19.787 19.7715 19.3121L14.1157 15.6567C13.8135 15.4553 13.4969 15.3833 13.1803 15.3833C13.3962 15.0667 13.5113 14.6925 13.5113 14.2896C13.5113 13.1958 12.619 12.3036 11.5253 12.3036C10.4316 12.3036 9.53931 13.1958 9.53931 14.2896C9.53931 15.3833 10.4316 16.2756 11.5253 16.2756C11.5973 16.2756 11.6692 16.2756 11.7268 16.2612C11.5397 16.5922 11.4677 16.9807 11.5541 17.3981L15.2958 36.0635C15.5692 37.4019 16.7493 38.3661 18.1165 38.3661H41.2288C42.596 38.3661 43.776 37.4019 44.0495 36.0635L47.7912 17.3981C47.8775 16.9807 47.7912 16.5778 47.6185 16.2612C47.6905 16.2612 47.7624 16.2756 47.82 16.2756C48.9137 16.2756 49.806 15.3833 49.806 14.2896Z" fill="#FFB02E"/>
<path id="Vector_4" d="M29.6728 32.8686C30.627 32.8686 31.5421 32.4895 32.2168 31.8148C32.8915 31.1401 33.2706 30.225 33.2706 29.2708C33.2706 28.3166 32.8915 27.4015 32.2168 26.7267C31.5421 26.052 30.627 25.673 29.6728 25.673C28.7186 25.673 27.8034 26.052 27.1287 26.7267C26.454 27.4015 26.075 28.3166 26.075 29.2708C26.075 30.225 26.454 31.1401 27.1287 31.8148C27.8034 32.4895 28.7186 32.8686 29.6728 32.8686Z" fill="#00A6ED"/>
<path id="Vector_5" fill-rule="evenodd" clip-rule="evenodd" d="M22.4914 29.2708C22.4914 29.8433 22.264 30.3924 21.8592 30.7972C21.4543 31.2021 20.9053 31.4295 20.3328 31.4295C19.7602 31.4295 19.2112 31.2021 18.8063 30.7972C18.4015 30.3924 18.1741 29.8433 18.1741 29.2708C18.1741 28.6983 18.4015 28.1492 18.8063 27.7444C19.2112 27.3396 19.7602 27.1121 20.3328 27.1121C20.9053 27.1121 21.4543 27.3396 21.8592 27.7444C22.264 28.1492 22.4914 28.6983 22.4914 29.2708ZM41.2 29.2708C41.2 29.8433 40.9726 30.3924 40.5678 30.7972C40.1629 31.2021 39.6139 31.4295 39.0414 31.4295C38.4688 31.4295 37.9198 31.2021 37.5149 30.7972C37.1101 30.3924 36.8827 29.8433 36.8827 29.2708C36.8827 28.6983 37.1101 28.1492 37.5149 27.7444C37.9198 27.3396 38.4688 27.1121 39.0414 27.1121C39.6139 27.1121 40.1629 27.3396 40.5678 27.7444C40.9726 28.1492 41.2 28.6983 41.2 29.2708Z" fill="#F8312F"/>
</g>
<defs>
<filter id="filter0_d_790_165" x="0.387792" y="0.951525" width="58.5696" height="51.1418" filterUnits="userSpaceOnUse" color-interpolation-filters="sRGB">
<feFlood flood-opacity="0" result="BackgroundImageFix"/>
<feColorMatrix in="SourceAlpha" type="matrix" values="0 0 0 0 0 0 0 0 0 0 0 0 0 0 0 0 0 0 127 0" result="hardAlpha"/>
<feOffset dy="4.57576"/>
<feGaussianBlur stdDeviation="4.57576"/>
<feComposite in2="hardAlpha" operator="out"/>
<feColorMatrix type="matrix" values="0 0 0 0 0 0 0 0 0 0 0 0 0 0 0 0 0 0 0.25 0"/>
<feBlend mode="normal" in2="BackgroundImageFix" result="effect1_dropShadow_790_165"/>
<feBlend mode="normal" in="SourceGraphic" in2="effect1_dropShadow_790_165" result="shape"/>
</filter>
</defs>
</svg>
