<svg width="23" height="24" viewBox="0 0 23 24" fill="none" xmlns="http://www.w3.org/2000/svg">
<path id="Vector" opacity="0.8" fill-rule="evenodd" clip-rule="evenodd" d="M6.32861 5.97515C6.32861 4.63239 6.86202 3.34462 7.8115 2.39515C8.76098 1.44567 10.0487 0.912262 11.3915 0.912262C12.7343 0.912262 14.022 1.44567 14.9715 2.39515C15.921 3.34462 16.4544 4.63239 16.4544 5.97515C16.4544 7.31791 15.921 8.60568 14.9715 9.55516C14.022 10.5046 12.7343 11.038 11.3915 11.038C10.0487 11.038 8.76098 10.5046 7.8115 9.55516C6.86202 8.60568 6.32861 7.31791 6.32861 5.97515ZM6.32861 13.5695C4.65016 13.5695 3.04045 14.2363 1.85361 15.4231C0.666763 16.6099 0 18.2197 0 19.8981C0 20.9052 0.400058 21.871 1.11216 22.5831C1.82427 23.2952 2.7901 23.6953 3.79717 23.6953H18.9858C19.9929 23.6953 20.9587 23.2952 21.6708 22.5831C22.383 21.871 22.783 20.9052 22.783 19.8981C22.783 18.2197 22.1162 16.6099 20.9294 15.4231C19.7426 14.2363 18.1328 13.5695 16.4544 13.5695H6.32861Z" fill="white" fill-opacity="0.8"/>
</svg>
