<svg width="34" height="34" viewBox="0 0 34 34" fill="none" xmlns="http://www.w3.org/2000/svg">
<path d="M16.8397 28.7947C15.1519 28.7935 13.4834 28.4367 11.9427 27.7477C10.4021 27.0587 9.0238 26.0529 7.89771 24.7958L9.68538 23.1953C10.7527 24.3888 12.1016 25.2963 13.6093 25.8351C15.1169 26.374 16.7354 26.5272 18.3174 26.2807C19.8994 26.0343 21.3946 25.396 22.6669 24.4239C23.9391 23.4519 24.948 22.1771 25.6017 20.7155C26.2554 19.254 26.533 17.6521 26.4094 16.0558C26.2858 14.4595 25.7648 12.9195 24.8939 11.576C24.023 10.2325 22.8299 9.12822 21.4231 8.36369C20.0164 7.59915 18.4407 7.19866 16.8397 7.19869V4.79913C20.0217 4.79913 23.0734 6.06318 25.3234 8.3132C27.5734 10.5632 28.8374 13.6149 28.8374 16.7969C28.8374 19.9789 27.5734 23.0306 25.3234 25.2806C23.0734 27.5307 20.0217 28.7947 16.8397 28.7947Z" fill="#BCBBBB"/>
<path d="M16.8398 23.9956C15.416 23.9956 14.0242 23.5734 12.8404 22.7824C11.6566 21.9914 10.7339 20.8671 10.1891 19.5518C9.64423 18.2364 9.50167 16.789 9.77944 15.3926C10.0572 13.9961 10.7428 12.7135 11.7496 11.7067C12.7563 10.7 14.039 10.0144 15.4354 9.73659C16.8318 9.45883 18.2792 9.60139 19.5946 10.1462C20.91 10.6911 22.0343 11.6138 22.8253 12.7976C23.6163 13.9814 24.0385 15.3732 24.0385 16.7969C24.0362 18.7055 23.2771 20.5352 21.9276 21.8847C20.578 23.2342 18.7483 23.9934 16.8398 23.9956ZM16.8398 11.9978C15.8906 11.9978 14.9628 12.2793 14.1735 12.8066C13.3843 13.334 12.7692 14.0835 12.406 14.9604C12.0428 15.8373 11.9477 16.8023 12.1329 17.7332C12.3181 18.6641 12.7751 19.5193 13.4463 20.1904C14.1175 20.8616 14.9726 21.3187 15.9035 21.5038C16.8345 21.689 17.7994 21.594 18.6763 21.2307C19.5533 20.8675 20.3028 20.2524 20.8301 19.4632C21.3574 18.674 21.6389 17.7461 21.6389 16.7969C21.6373 15.5246 21.1312 14.3049 20.2315 13.4052C19.3319 12.5055 18.1121 11.9994 16.8398 11.9978Z" fill="#BCBBBB"/>
<path d="M16.7969 33.5938C13.4748 33.5938 10.2273 32.6087 7.46505 30.763C4.70281 28.9174 2.54991 26.294 1.2786 23.2248C0.00727782 20.1556 -0.325357 16.7783 0.322755 13.52C0.970867 10.2617 2.57062 7.26879 4.91971 4.91971C7.26879 2.57062 10.2617 0.970867 13.52 0.322755C16.7783 -0.325357 20.1556 0.00727782 23.2248 1.2786C26.294 2.54991 28.9174 4.70281 30.763 7.46505C32.6087 10.2273 33.5938 13.4748 33.5938 16.7969C33.5887 21.2502 31.8174 25.5196 28.6685 28.6685C25.5196 31.8174 21.2502 33.5887 16.7969 33.5938ZM16.7969 2.39957C13.9494 2.39957 11.1658 3.24395 8.79817 4.82595C6.43054 6.40796 4.5852 8.65651 3.4955 11.2873C2.4058 13.9181 2.12068 16.8129 2.67621 19.6057C3.23173 22.3985 4.60294 24.9639 6.61645 26.9774C8.62995 28.9909 11.1953 30.3621 13.9881 30.9176C16.7809 31.4731 19.6758 31.188 22.3065 30.0983C24.9373 29.0086 27.1859 27.1633 28.7679 24.7956C30.3499 22.428 31.1943 19.6444 31.1943 16.7969C31.1898 12.9799 29.6715 9.32042 26.9725 6.62136C24.2734 3.9223 20.614 2.40401 16.7969 2.39957Z" fill="#BCBBBB"/>
</svg>
