<svg width="28" height="28" viewBox="0 0 28 28" fill="none" xmlns="http://www.w3.org/2000/svg">
<g id="ranking-outline 2">
<path id="Vector" fill-rule="evenodd" clip-rule="evenodd" d="M13.9997 3.53965C13.932 3.65748 13.8562 3.79281 13.7675 3.95265L13.6532 4.15798L13.6263 4.20465C13.5353 4.37265 13.3837 4.65031 13.1305 4.84281C12.8727 5.03881 12.5612 5.10648 12.3803 5.14615L12.329 5.15665L12.1073 5.20681C11.902 5.25348 11.7352 5.29081 11.594 5.32698C11.6862 5.44015 11.8063 5.58248 11.9627 5.76565L12.1143 5.94298L12.1493 5.98265C12.2753 6.12848 12.4783 6.36181 12.5728 6.66515C12.6662 6.96381 12.6335 7.27181 12.6137 7.46548C12.6116 7.48375 12.6097 7.50202 12.6078 7.52031L12.5845 7.75715C12.567 7.93593 12.5507 8.11482 12.5355 8.29381C12.658 8.24015 12.7957 8.17715 12.9602 8.10131L13.169 8.00565L13.2157 7.98231C13.3837 7.90415 13.6742 7.76648 13.9997 7.76648C14.3252 7.76648 14.6157 7.90415 14.7837 7.98348L14.8303 8.00565L15.0392 8.10131C15.2025 8.17715 15.3425 8.24131 15.4638 8.29381C15.4487 8.11482 15.4323 7.93593 15.4148 7.75715L15.3915 7.52031C15.3897 7.50202 15.3877 7.48375 15.3857 7.46548C15.3658 7.27065 15.3332 6.96381 15.4265 6.66515C15.5198 6.36181 15.724 6.12848 15.85 5.98265L15.885 5.94298L16.0367 5.76565C16.193 5.58248 16.3132 5.44015 16.4053 5.32698C16.2642 5.29198 16.0973 5.25348 15.892 5.20681L15.6703 5.15665L15.619 5.14498C15.4382 5.10648 15.1267 5.03881 14.8688 4.84165C14.6157 4.65031 14.464 4.37265 14.373 4.20581L14.3462 4.15798L14.2318 3.95265C14.1432 3.79281 14.0685 3.65748 13.9997 3.53965ZM12.8493 2.09998C13.05 1.83748 13.414 1.45831 13.9997 1.45831C14.5853 1.45831 14.9493 1.83748 15.15 2.09998C15.3425 2.34965 15.535 2.69615 15.7333 3.05198L15.7602 3.09981L15.8745 3.30631L15.941 3.42298L16.0565 3.44981L16.2782 3.49998L16.3342 3.51165C16.7157 3.59915 17.096 3.68431 17.3877 3.79981C17.7097 3.92698 18.146 4.17315 18.3152 4.71565C18.4808 5.24648 18.272 5.69681 18.09 5.98731C17.9208 6.25565 17.6642 6.55431 17.4017 6.86115L17.3667 6.90198L17.215 7.08048L17.1193 7.19365C17.1217 7.23565 17.1275 7.28465 17.1333 7.35115L17.1567 7.58798L17.1613 7.64165C17.201 8.05231 17.2395 8.44898 17.2255 8.76631C17.2115 9.09998 17.1322 9.60398 16.6795 9.94581C16.2128 10.3005 15.6995 10.2235 15.3728 10.129C15.0718 10.0438 14.716 9.87931 14.3578 9.71481L14.3077 9.69148L14.0977 9.59465L13.9997 9.54915L13.9005 9.59581L13.6917 9.69148L13.6403 9.71481C13.2833 9.87931 12.9287 10.0438 12.6265 10.129C12.2998 10.2223 11.7865 10.3005 11.3198 9.94581C10.8683 9.60398 10.7878 9.09998 10.7738 8.76748C10.7598 8.44898 10.7972 8.05231 10.838 7.64165L10.8427 7.58798L10.866 7.35115L10.8812 7.19365C10.8491 7.15571 10.8169 7.11799 10.7843 7.08048L10.6327 6.90198L10.5977 6.86115C10.3352 6.55431 10.0785 6.25448 9.90934 5.98615C9.72734 5.69681 9.51851 5.24648 9.68417 4.71448C9.85217 4.17431 10.2897 3.92698 10.6117 3.79981C10.9033 3.68431 11.2837 3.59915 11.6652 3.51281L11.72 3.50115L11.9428 3.44981L12.0595 3.42298L12.1248 3.30631L12.2392 3.09981L12.266 3.05198C12.4643 2.69615 12.6568 2.34965 12.8493 2.09998ZM12.7758 10.7916H15.2235C15.9993 10.7916 16.6678 10.7916 17.2033 10.864C17.7773 10.941 18.3268 11.1148 18.7725 11.5605C19.2182 12.0061 19.392 12.5556 19.469 13.1296C19.5413 13.6651 19.5413 14.3336 19.5413 15.1095V17.9865C19.7327 17.9281 19.9298 17.8908 20.1293 17.864C20.6648 17.7916 21.3333 17.7916 22.1092 17.7916H22.2235C22.9993 17.7916 23.6678 17.7916 24.2033 17.864C24.7773 17.941 25.3268 18.1148 25.7725 18.5605C26.2182 19.0061 26.392 19.5556 26.469 20.1296C26.5413 20.6651 26.5413 21.3336 26.5413 22.1095V25.6666C26.5413 25.8987 26.4492 26.1213 26.2851 26.2854C26.121 26.4495 25.8984 26.5416 25.6663 26.5416C25.4343 26.5416 25.2117 26.4495 25.0476 26.2854C24.8835 26.1213 24.7913 25.8987 24.7913 25.6666V22.1666C24.7913 21.3173 24.789 20.7666 24.7353 20.363C24.684 19.9838 24.6012 19.8648 24.5347 19.7983C24.4682 19.7318 24.3492 19.649 23.97 19.5976C23.5652 19.544 23.0157 19.5416 22.1663 19.5416C21.317 19.5416 20.7663 19.544 20.3627 19.5976C19.9835 19.649 19.8645 19.7318 19.798 19.7983C19.7315 19.8648 19.6487 19.9838 19.5973 20.363C19.5437 20.7678 19.5413 21.3173 19.5413 22.1666V25.6666C19.5413 25.8987 19.4492 26.1213 19.2851 26.2854C19.121 26.4495 18.8984 26.5416 18.6663 26.5416C18.4343 26.5416 18.2117 26.4495 18.0476 26.2854C17.8835 26.1213 17.7913 25.8987 17.7913 25.6666V15.1666C17.7913 14.3173 17.789 13.7666 17.7353 13.363C17.684 12.9838 17.6012 12.8648 17.5347 12.7983C17.4682 12.7318 17.3492 12.649 16.97 12.5976C16.5652 12.544 16.0157 12.5416 15.1663 12.5416H12.833C11.9837 12.5416 11.433 12.544 11.0293 12.5976C10.6502 12.649 10.5312 12.7318 10.4647 12.7983C10.3982 12.8648 10.3153 12.9838 10.264 13.363C10.2103 13.7678 10.208 14.3173 10.208 15.1666V25.6666C10.208 25.8987 10.1158 26.1213 9.95173 26.2854C9.78763 26.4495 9.56507 26.5416 9.33301 26.5416C9.10094 26.5416 8.87838 26.4495 8.71429 26.2854C8.55019 26.1213 8.45801 25.8987 8.45801 25.6666C8.45801 24.8173 8.45567 24.2666 8.40201 23.863C8.35067 23.4838 8.26784 23.3648 8.20134 23.2983C8.13484 23.2318 8.01584 23.149 7.63667 23.0976C7.23184 23.044 6.68234 23.0416 5.83301 23.0416C4.98367 23.0416 4.43301 23.044 4.02934 23.0976C3.65017 23.149 3.53117 23.2318 3.46467 23.2983C3.39817 23.3648 3.31534 23.4838 3.26401 23.863C3.21034 24.2678 3.20801 24.8173 3.20801 25.6666C3.20801 25.8987 3.11582 26.1213 2.95173 26.2854C2.78763 26.4495 2.56507 26.5416 2.33301 26.5416C2.10094 26.5416 1.87838 26.4495 1.71429 26.2854C1.5502 26.1213 1.45801 25.8987 1.45801 25.6666V25.6083C1.45801 24.8336 1.45801 24.1651 1.53034 23.6296C1.60734 23.0556 1.78117 22.5061 2.22684 22.0605C2.67251 21.6148 3.22317 21.441 3.79601 21.364C4.33151 21.2916 5.00001 21.2916 5.77584 21.2916H5.89017C6.66601 21.2916 7.33451 21.2916 7.87001 21.364C8.06951 21.3908 8.26667 21.4293 8.45801 21.4865V15.1095C8.45801 14.3336 8.45801 13.6651 8.53034 13.1296C8.60734 12.5556 8.78117 12.0061 9.22684 11.5605C9.67251 11.1148 10.2232 10.941 10.796 10.864C11.3315 10.7916 12 10.7916 12.7758 10.7916Z" fill="#545454"/>
</g>
</svg>
