<svg width="43" height="44" viewBox="0 0 43 44" fill="none" xmlns="http://www.w3.org/2000/svg">
<g id="Group 19">
<circle id="Ellipse 67" cx="21.3395" cy="21.9939" r="19.2182" fill="#D9D9D9" stroke="#E1B260" stroke-width="3.66061"/>
<path id="Vector" d="M21.7085 21.6246C24.9729 21.6246 27.6169 18.9807 27.6169 15.7163C27.6169 12.4519 24.9729 9.80795 21.7085 9.80795C18.4442 9.80795 15.8002 12.4519 15.8002 15.7163C15.8002 18.9807 18.4442 21.6246 21.7085 21.6246ZM21.7085 24.5788C17.7647 24.5788 9.89185 26.5581 9.89185 30.4872V31.9643C9.89185 32.7767 10.5565 33.4413 11.3689 33.4413H32.0481C32.8605 33.4413 33.5252 32.7767 33.5252 31.9643V30.4872C33.5252 26.5581 25.6524 24.5788 21.7085 24.5788Z" fill="black"/>
<line id="Line 20" x1="36.9022" y1="11.2229" x2="8.09901" y2="34.8563" stroke="#E1B260" stroke-width="3.66061"/>
</g>
</svg>
