<svg width="35" height="34" viewBox="0 0 35 34" fill="none" xmlns="http://www.w3.org/2000/svg">
<path id="Vector" d="M17.3934 0.452637C7.92725 0.452637 0.261719 7.89736 0.261719 17.0703C0.261719 26.2433 7.92725 33.688 17.3934 33.688C26.8767 33.688 34.5594 26.2433 34.5594 17.0703C34.5594 7.89736 26.8767 0.452637 17.3934 0.452637ZM17.4106 30.3645C9.83077 30.3645 3.69149 24.4153 3.69149 17.0703C3.69149 9.7253 9.83077 3.77617 17.4106 3.77617C24.9903 3.77617 31.1296 9.7253 31.1296 17.0703C31.1296 24.4153 24.9903 30.3645 17.4106 30.3645ZM17.0333 8.76148H16.9304C16.2444 8.76148 15.6957 9.29324 15.6957 9.95795V17.8015C15.6957 18.3831 16.0044 18.9315 16.536 19.2306L23.6527 23.3684C24.2358 23.7008 24.9903 23.5346 25.3333 22.9696C25.4194 22.835 25.4767 22.6851 25.5018 22.5286C25.5268 22.3721 25.5191 22.2124 25.4791 22.0589C25.4391 21.9054 25.3676 21.7612 25.2689 21.6351C25.1702 21.5089 25.0463 21.4032 24.9046 21.3244L18.268 17.5024V9.95795C18.268 9.29324 17.7192 8.76148 17.0333 8.76148Z" fill="#BCBBBB"/>
</svg>
