<svg width="23" height="24" viewBox="0 0 23 24" fill="none" xmlns="http://www.w3.org/2000/svg">
<path id="Vector" opacity="0.8" d="M11.3959 8.67344C10.592 8.67344 9.8393 8.96881 9.26935 9.50864C8.7021 10.0485 8.38756 10.7614 8.38756 11.5228C8.38756 12.2841 8.7021 12.9971 9.26935 13.5369C9.8393 14.0742 10.592 14.3721 11.3959 14.3721C12.1997 14.3721 12.9525 14.0742 13.5224 13.5369C14.0897 12.9971 14.4042 12.2841 14.4042 11.5228C14.4042 10.7614 14.0897 10.0485 13.5224 9.50864C13.244 9.24294 12.9127 9.03229 12.5476 8.88891C12.1826 8.74554 11.7911 8.67229 11.3959 8.67344ZM22.4801 14.6701L20.7219 13.2467C20.8053 12.7628 20.8483 12.2689 20.8483 11.7774C20.8483 11.286 20.8053 10.7894 20.7219 10.3082L22.4801 8.88478C22.613 8.77709 22.708 8.63365 22.7527 8.47355C22.7973 8.31344 22.7895 8.14425 22.7302 7.98847L22.706 7.92227C22.2221 6.64068 21.4971 5.45272 20.566 4.41597L20.5176 4.3625C20.4046 4.23658 20.2539 4.14607 20.0854 4.10289C19.917 4.05971 19.7387 4.06588 19.574 4.12059L17.391 4.85648C16.5845 4.23009 15.6866 3.7361 14.7134 3.39234L14.2913 1.23051C14.2594 1.06765 14.176 0.917822 14.0521 0.800934C13.9282 0.684045 13.7697 0.605627 13.5977 0.576098L13.5251 0.563367C12.1271 0.324011 10.6539 0.324011 9.25591 0.563367L9.18333 0.576098C9.01126 0.605627 8.85275 0.684045 8.72886 0.800934C8.60497 0.917822 8.52156 1.06765 8.48972 1.23051L8.06495 3.40253C7.10097 3.74902 6.20295 4.24181 5.40613 4.86158L3.20702 4.12059C3.0424 4.06545 2.86395 4.05905 2.6954 4.10226C2.52685 4.14547 2.37617 4.23623 2.26339 4.3625L2.215 4.41597C1.2856 5.45383 0.560752 6.64148 0.0750361 7.92227L0.0508405 7.98847C-0.0701374 8.30677 0.0293334 8.66325 0.300862 8.88478L2.08058 10.3235C1.99724 10.8022 1.95691 11.2911 1.95691 11.7749C1.95691 12.2638 1.99724 12.7527 2.08058 13.2263L0.306238 14.665C0.17342 14.7727 0.0783601 14.9161 0.0336992 15.0762C-0.0109617 15.2363 -0.00310768 15.4055 0.0562172 15.5613L0.0804128 15.6275C0.567013 16.9083 1.28481 18.0923 2.22038 19.1338L2.26877 19.1872C2.38183 19.3132 2.53251 19.4037 2.70096 19.4469C2.86941 19.49 3.04772 19.4839 3.2124 19.4291L5.4115 18.6882C6.21265 19.312 7.10519 19.806 8.07033 20.1472L8.4951 22.3192C8.52694 22.4821 8.61035 22.6319 8.73424 22.7488C8.85813 22.8657 9.01664 22.9441 9.1887 22.9736L9.26129 22.9864C10.673 23.227 12.1187 23.227 13.5305 22.9864L13.6031 22.9736C13.7751 22.9441 13.9336 22.8657 14.0575 22.7488C14.1814 22.6319 14.2648 22.4821 14.2967 22.3192L14.7187 20.1574C15.6919 19.8111 16.5899 19.3197 17.3964 18.6933L19.5794 19.4291C19.744 19.4843 19.9224 19.4907 20.091 19.4475C20.2595 19.4043 20.4102 19.3135 20.523 19.1872L20.5714 19.1338C21.5069 18.0872 22.2247 16.9083 22.7113 15.6275L22.7355 15.5613C22.8511 15.2455 22.7517 14.8916 22.4801 14.6701ZM11.3959 15.9992C8.78544 15.9992 6.66967 13.9953 6.66967 11.5228C6.66967 9.05029 8.78544 7.04633 11.3959 7.04633C14.0063 7.04633 16.1221 9.05029 16.1221 11.5228C16.1221 13.9953 14.0063 15.9992 11.3959 15.9992Z" fill="white" fill-opacity="0.8"/>
</svg>
